<svg xmlns="http://www.w3.org/2000/svg" version="1.1" xmlns:xlink="http://www.w3.org/1999/xlink" xmlns:svgjs="http://svgjs.dev/svgjs" width="1000" height="209" viewBox="0 0 1000 209"><g transform="matrix(1,0,0,1,-0.6056348047761162,0.175509508038445)"><svg viewBox="0 0 396 83" data-background-color="#c8c8c8" preserveAspectRatio="xMidYMid meet" height="209" width="1000" xmlns="http://www.w3.org/2000/svg" xmlns:xlink="http://www.w3.org/1999/xlink"><g id="tight-bounds" transform="matrix(1,0,0,1,0.24008861730862918,-0.06964460846862153)"><svg viewBox="0 0 395.52 83.13897658291785" height="83.13897658291785" width="395.52"><g><svg viewBox="0 0 395.52 83.13897658291785" height="83.13897658291785" width="395.52"><g><svg viewBox="0 0 395.52 83.13897658291785" height="83.13897658291785" width="395.52"><g id="textblocktransform"><svg viewBox="0 0 395.52 83.13897658291785" height="83.13897658291785" width="395.52" id="textblock"><g><svg viewBox="0 0 395.52 83.13897658291785" height="83.13897658291785" width="395.52"><path d="M394.594 17.832C392.735 9.202 387.435 6.803 387.435 6.803 371.165-2.086 350.86-0.17 332.619 1.107 300.414 1.159 268.339 3.058 236.208 4.076 168.767 4.231 100.749 1.677 33.643 7.976 27.339 9.91-6.54 8.356 1.121 18.936 3.129 23.338 10.456 28.222 10.232 32.261 11.236 32.968 12.631 31.346 13.226 32.364 15.309 35.109 18.711 33.814 21.501 35.437 17.614 39.769 20.403 43.376 23.062 47.156 18.377 48.14 12.371 47.674 9.675 50.936 9.396 53.3 7.89 52.851 6.235 52.748 5.026 52.679 2.59 52.938 2.999 53.68 4.394 56.217-1.594 57.684 2.162 60.17-0.422 62.862 3.948 65.192 3.353 68.109 3.278 68.696 3.687 69.196 4.338 69.334 7.22 70.077 3.018 71.526 3.464 73.097 33.029 83.832 65.104 76.411 95.394 81.347 103.259 77.895 97.346 82.572 100.489 81.848 102.943 81.002 104.728 84.506 107.499 82.521 107.927 81.951 107.276 80.605 108.8 80.864 109.6 81.002 110.307 80.967 110.418 80.173 110.586 78.982 109.117 79.725 108.726 79.103 112.947 75.962 111.906 83.435 115.866 83.125 115.68 82.21 114.528 80.898 116.889 81.071 119.232 79.759 119.306 78.672 121.389 81.623 121.463 82.262 121.835 82.711 122.43 83.021 128.938 79.811 135.409 84.16 142.233 82.711 146.417 81.123 150.433 83.574 154.672 82.969 156.16 82.486 157.666 81.623 159.098 83.073 176.632 83.384 195.319 82.089 211.943 83.125 256.364 81.192 303.836 83.919 350.674 81.364 361.719 80.38 373.192 78.982 383.958 77.861 383.958 77.861 392.679 74.788 392.679 60.981S394.538 48.899 394.817 37.905C395.096 26.91 396.398 26.462 394.538 17.832Z" opacity="1" fill="#eeeeee" data-fill-palette-color="tertiary"></path><g transform="matrix(1,0,0,1,55.76832,26.230666666666668)"><svg width="283.98335999999995" viewBox="2.25 -25.73 249.71 26.98" height="30.677643249584513" data-palette-color="#2b3035"><path d="M21-17.65L21-2.76Q21-2.34 21.18-1.99 21.36-1.64 21.62-1.4 21.88-1.17 22.36-0.95 22.85-0.73 23.22-0.61 23.58-0.49 24.24-0.29L24.24-0.29 24.05 0.29Q22.49 0 20.95 0L20.95 0Q19.02 0 17.14 0.39L17.14 0.39 16.99 0.15Q17.5-0.56 17.5-2.44L17.5-2.44 17.5-4.05Q16.28-1.78 13.71-0.39 11.13 1 8.5 1L8.5 1Q5.69 1 3.97-0.45 2.25-1.9 2.25-4.76L2.25-4.76Q2.25-6.62 3.02-8.07 3.78-9.52 5.07-10.53 6.35-11.55 8.36-12.33 10.38-13.11 12.51-13.6 14.65-14.09 17.5-14.5L17.5-14.5 17.5-16.75Q17.5-23.46 12.21-23.46L12.21-23.46Q10.5-23.46 8.02-22.62 5.54-21.78 3.86-20.41L3.86-20.41 2.86-21.56Q4.98-23.24 7.9-24.34 10.82-25.44 13.35-25.44L13.35-25.44Q14.48-25.44 15.49-25.23 16.5-25.02 17.54-24.48 18.58-23.93 19.32-23.08 20.07-22.24 20.53-20.84 21-19.43 21-17.65L21-17.65ZM9.64-0.85L9.64-0.85Q11.77-0.85 14.09-2.26 16.41-3.66 17.5-5.76L17.5-5.76 17.5-13.21Q11.25-12.3 8.58-10.44 5.91-8.57 5.91-5L5.91-5Q5.91-2.83 6.84-1.84 7.76-0.85 9.64-0.85ZM32.13-2.44L32.13-18.09Q32.13-19.73 31.97-20.83 31.81-21.92 31.41-22.58 31-23.24 30.3-23.51 29.59-23.78 28.79-23.78 28-23.78 27.83-23.75L27.83-23.75 27.73-24.19Q31.71-25.39 35.13-25.39L35.13-25.39Q35.64-24.1 35.64-22.61L35.64-22.61 35.64-21.9Q37.06-22.85 38.25-23.56 39.45-24.27 40.61-24.76 41.77-25.24 42.99-25.49 44.21-25.73 45.68-25.73L45.68-25.73Q46.99-25.73 48.3-25.39 49.61-25.05 50.64-24.17 51.68-23.29 52.33-21.78 52.98-20.26 52.98-17.94L52.98-17.94 52.98-2.76Q52.98-2.17 53.26-1.78 53.54-1.39 53.99-1.12 54.44-0.85 55.03-0.67 55.61-0.49 56.25-0.29L56.25-0.29 56.03 0.29Q54.66 0 52.39 0L52.39 0Q51 0 49.14 0.39L49.14 0.39 49 0.15Q49.48-0.56 49.48-2.44L49.48-2.44 49.48-17.04Q49.48-19.09 49.09-20.4 48.7-21.7 48.03-22.45 47.36-23.19 46.47-23.49 45.58-23.78 44.58-23.78L44.58-23.78Q43.36-23.78 42.29-23.56 41.23-23.34 40.17-22.89 39.11-22.44 38.01-21.77 36.91-21.09 35.64-20.19L35.64-20.19 35.64-3.34Q35.64-2.56 35.76-2.09 35.89-1.61 36.28-1.29 36.67-0.98 37.38-0.73 38.08-0.49 39.23-0.2L39.23-0.2 39.04 0.39Q37.62 0.2 36.63 0.1 35.64 0 35.03 0L35.03 0Q33.64 0 31.78 0.39L31.78 0.39 31.64 0.15Q32.13-0.56 32.13-2.44L32.13-2.44ZM73.14-25.39L73.14-25.39Q78.75-25.39 81.95-21.95 85.15-18.51 85.15-12.35L85.15-12.35Q85.15-8.79 83.52-5.71 81.88-2.64 79.07-0.82 76.26 1 72.99 1L72.99 1Q67.35 1 64.17-2.4 60.98-5.81 60.98-12.06L60.98-12.06Q60.98-15.77 62.62-18.84 64.25-21.9 67.05-23.65 69.84-25.39 73.14-25.39ZM72.65-23.71L72.65-23.71Q70.72-23.71 69.31-23.14 67.89-22.58 67.04-21.63 66.18-20.68 65.67-19.21 65.16-17.75 64.97-16.21 64.79-14.67 64.79-12.65L64.79-12.65Q64.79-9.42 65.56-7.02 66.33-4.61 67.62-3.28 68.92-1.95 70.38-1.33 71.85-0.71 73.48-0.71L73.48-0.71Q75.39-0.71 76.81-1.31 78.24-1.9 79.1-2.87 79.95-3.83 80.46-5.31 80.98-6.79 81.16-8.3 81.34-9.81 81.34-11.74L81.34-11.74Q81.34-14.45 80.83-16.58 80.32-18.7 79.47-20.02 78.63-21.34 77.47-22.19 76.31-23.05 75.14-23.38 73.97-23.71 72.65-23.71ZM93.28-2.44L93.28-18.09Q93.28-19.73 93.12-20.83 92.96-21.92 92.56-22.58 92.16-23.24 91.45-23.51 90.74-23.78 89.95-23.78 89.15-23.78 88.98-23.75L88.98-23.75 88.88-24.19Q92.86-25.39 96.28-25.39L96.28-25.39Q96.79-24.1 96.79-22.61L96.79-22.61 96.79-21.9Q98.21-22.85 99.41-23.56 100.6-24.27 101.76-24.76 102.92-25.24 104.14-25.49 105.36-25.73 106.83-25.73L106.83-25.73Q108.15-25.73 109.45-25.39 110.76-25.05 111.8-24.17 112.83-23.29 113.48-21.78 114.13-20.26 114.13-17.94L114.13-17.94 114.13-2.76Q114.13-2.17 114.41-1.78 114.69-1.39 115.14-1.12 115.59-0.85 116.18-0.67 116.76-0.49 117.4-0.29L117.4-0.29 117.18 0.29Q115.81 0 113.54 0L113.54 0Q112.15 0 110.3 0.39L110.3 0.39 110.15 0.15Q110.64-0.56 110.64-2.44L110.64-2.44 110.64-17.04Q110.64-19.09 110.25-20.4 109.86-21.7 109.18-22.45 108.51-23.19 107.62-23.49 106.73-23.78 105.73-23.78L105.73-23.78Q104.51-23.78 103.45-23.56 102.39-23.34 101.32-22.89 100.26-22.44 99.16-21.77 98.06-21.09 96.79-20.19L96.79-20.19 96.79-3.34Q96.79-2.56 96.92-2.09 97.04-1.61 97.43-1.29 97.82-0.98 98.53-0.73 99.24-0.49 100.38-0.2L100.38-0.2 100.19 0.39Q98.77 0.2 97.78 0.1 96.79 0 96.18 0L96.18 0Q94.79 0 92.94 0.39L92.94 0.39 92.79 0.15Q93.28-0.56 93.28-2.44L93.28-2.44ZM138.27-2.44L138.27-18.09Q138.27-19.73 138.11-20.83 137.95-21.92 137.55-22.58 137.15-23.24 136.44-23.51 135.73-23.78 134.94-23.78 134.14-23.78 133.97-23.75L133.97-23.75 133.87-24.19Q137.85-25.39 141.27-25.39L141.27-25.39Q141.78-24.1 141.78-22.61L141.78-22.61 141.78-21.9Q143.2-22.85 144.4-23.56 145.59-24.27 146.75-24.76 147.91-25.24 149.13-25.49 150.35-25.73 151.82-25.73L151.82-25.73Q153.14-25.73 154.44-25.39 155.75-25.05 156.79-24.17 157.82-23.29 158.47-21.78 159.12-20.26 159.12-17.94L159.12-17.94 159.12-2.76Q159.12-2.17 159.4-1.78 159.68-1.39 160.13-1.12 160.58-0.85 161.17-0.67 161.76-0.49 162.39-0.29L162.39-0.29 162.17 0.29Q160.8 0 158.53 0L158.53 0Q157.14 0 155.29 0.39L155.29 0.39 155.14 0.15Q155.63-0.56 155.63-2.44L155.63-2.44 155.63-17.04Q155.63-19.09 155.24-20.4 154.85-21.7 154.17-22.45 153.5-23.19 152.61-23.49 151.72-23.78 150.72-23.78L150.72-23.78Q149.5-23.78 148.44-23.56 147.38-23.34 146.31-22.89 145.25-22.44 144.15-21.77 143.05-21.09 141.78-20.19L141.78-20.19 141.78-3.34Q141.78-2.56 141.91-2.09 142.03-1.61 142.42-1.29 142.81-0.98 143.52-0.73 144.23-0.49 145.37-0.2L145.37-0.2 145.18 0.39Q143.76 0.2 142.77 0.1 141.78 0 141.17 0L141.17 0Q139.78 0 137.93 0.39L137.93 0.39 137.78 0.15Q138.27-0.56 138.27-2.44L138.27-2.44ZM167.12-11.89L167.12-11.89Q167.12-14.48 167.98-16.91 168.83-19.34 170.42-21.23 172.01-23.12 174.26-24.26 176.52-25.39 179.33-25.39L179.33-25.39Q181.09-25.39 182.65-24.79 184.21-24.19 185.37-22.94 186.53-21.68 187.2-19.71 187.88-17.75 187.88-15.04L187.88-15.04 186.92-14.16 170.98-14.16Q170.93-13.75 170.93-13.35 170.93-12.96 170.93-12.57L170.93-12.57Q170.93-9.91 171.55-7.74 172.18-5.57 173.24-4.02 174.3-2.47 175.74-1.61 177.18-0.76 178.79-0.76L178.79-0.76Q179.82-0.76 180.88-0.92 181.94-1.07 182.96-1.42 183.97-1.76 184.92-2.29 185.87-2.83 186.68-3.59L186.68-3.59 187.68-2.54Q185.75-0.63 183.48 0.18 181.21 1 178.23 1L178.23 1Q175.89 1 173.85 0.1 171.81-0.81 170.32-2.49 168.83-4.17 167.98-6.56 167.12-8.94 167.12-11.89ZM178.79-23.71L178.79-23.71Q175.01-23.71 173.25-21.74 171.49-19.78 171.13-16.09L171.13-16.09 184.73-16.09Q184.53-20.09 182.93-21.9 181.33-23.71 178.79-23.71ZM231.84-24.61L220.93 1.25 219.25 0.76 213.34-18.65 205.65 1.25 203.94 0.76 196.69-19.8Q196.3-21.07 195.76-21.8 195.22-22.53 194.62-22.75 194.03-22.97 193.31-23.01 192.59-23.05 191.39-22.85L191.39-22.85 191.14-23.34Q195.25-25.39 198.4-25.39L198.4-25.39 204.55-8.3Q205.06-6.57 205.65-3.81L205.65-3.81 206.04-3.81Q206.94-6.79 207.33-7.74L207.33-7.74 212.48-21.04Q212.19-21.85 211.68-22.27 211.16-22.68 210.77-22.88L210.77-22.88Q210.55-23 210.13-23.03 209.7-23.07 209.25-23.06 208.8-23.05 208.37-22.99 207.94-22.92 207.7-22.85L207.7-22.85 207.43-23.34Q211.53-25.39 214.63-25.39L214.63-25.39 219.98-8.4Q220.56-6.52 221.08-3.91L221.08-3.91 221.49-3.91Q222.25-6.4 222.79-7.86L222.79-7.86 228.55-22.29Q228.79-22.88 228.42-23.24 228.06-23.61 227.13-23.74 226.2-23.88 224.84-23.75L224.84-23.75 224.69-24.34Q227.81-25.02 231.55-25.1L231.55-25.1 231.84-24.61ZM251.96-5.69L251.96-5.69Q251.96-3.93 251.25-2.66 250.54-1.39 249.36-0.57 248.17 0.24 246.6 0.62 245.02 1 243.29 1L243.29 1Q239.09 1 235.4-0.76L235.4-0.76Q235.87-2.37 236.33-3.75 236.8-5.13 237.28-6.3L237.28-6.3 237.99-6.05Q237.77-4.98 237.77-3.99 237.77-3 237.85-2.2L237.85-2.2Q238.6-1.81 239.26-1.53 239.92-1.25 240.58-1.06 241.24-0.88 242-0.79 242.75-0.71 243.75-0.71L243.75-0.71Q245.24-0.71 246.22-0.9 247.2-1.1 247.75-1.57 248.3-2.05 248.52-2.84 248.73-3.64 248.73-4.81L248.73-4.81Q248.73-5.71 248.43-6.51 248.12-7.3 247.38-8.08 246.64-8.86 245.4-9.7 244.17-10.55 242.34-11.55L242.34-11.55Q239.38-13.31 237.87-15.05 236.36-16.8 236.36-18.8L236.36-18.8Q236.36-20.39 237.02-21.62 237.68-22.85 238.81-23.69 239.95-24.54 241.46-24.96 242.97-25.39 244.66-25.39L244.66-25.39Q245.51-25.39 246.45-25.27 247.39-25.15 248.27-24.91 249.15-24.68 249.92-24.35 250.69-24.02 251.25-23.61L251.25-23.61Q250.47-20.41 249.35-17.99L249.35-17.99 248.64-18.26Q248.69-18.97 248.71-20.01 248.73-21.04 248.73-22.46L248.73-22.46Q247.15-23.71 244.34-23.71L244.34-23.71Q242.95-23.71 241.98-23.54 241.02-23.36 240.43-22.95 239.85-22.53 239.59-21.81 239.34-21.09 239.34-20L239.34-20Q239.34-19.19 239.56-18.49 239.77-17.8 240.34-17.13 240.9-16.46 241.86-15.76 242.83-15.06 244.34-14.26L244.34-14.26Q246.71-12.96 248.19-11.99 249.66-11.01 250.5-10.07 251.35-9.13 251.65-8.11 251.96-7.08 251.96-5.69Z" opacity="1" transform="matrix(1,0,0,1,0,0)" fill="#2b3035" class="wordmark-text-0" data-fill-palette-color="quaternary" id="text-0"></path></svg></g></svg></g></svg></g></svg></g><g></g></svg></g><defs></defs></svg><rect width="395.52" height="83.13897658291785" fill="none" stroke="none" visibility="hidden"></rect></g></svg></g></svg>